<svg id="campfire" xmlns="http://www.w3.org/2000/svg" width="742" height="971" viewBox="0 0 742 971">
  <metadata><?xpacket begin="﻿" id="W5M0MpCehiHzreSzNTczkc9d"?>
<x:xmpmeta xmlns:x="adobe:ns:meta/" x:xmptk="Adobe XMP Core 5.6-c138 79.159824, 2016/09/14-01:09:01        ">
   <rdf:RDF xmlns:rdf="http://www.w3.org/1999/02/22-rdf-syntax-ns#">
      <rdf:Description rdf:about=""/>
   </rdf:RDF>
</x:xmpmeta>

<?xpacket end="w"?></metadata>
<defs>
    <style>
      .cls-1 {
        fill: #652d00;
      }

      .cls-1, .cls-2 {
        stroke: #000;
        stroke-linejoin: round;
        stroke-width: 10px;
        fill-rule: evenodd;
      }

      .cls-2 {
        fill: #ff5722;
      }
    </style>
  </defs>
  <path id="log_2" data-name="log 2" class="cls-1" d="M648.648,588.8L47.579,802.787S-8.983,828.322,15.206,906.305c18.908,60.957,79.776,47.746,79.776,47.746L693.04,715.9s25.1-37.072,10.8-74.386S648.648,588.8,648.648,588.8Z"/>
  <path class="cls-2" d="M44.6,813.691c28.048-7.634,59.142,16.881,69.451,54.756s-4.072,74.767-32.119,82.4-59.142-16.881-69.451-54.756S16.556,821.325,44.6,813.691Z"/>
  <path id="log_2_copy" data-name="log 2 copy" class="cls-1" d="M92.352,589.8L693.421,803.787s56.562,25.535,32.373,103.518c-18.908,60.957-79.777,47.746-79.777,47.746L47.96,716.9s-25.1-37.072-10.8-74.386S92.352,589.8,92.352,589.8Z"/>
  <path id="Ellipse_3_copy_2" data-name="Ellipse 3 copy 2" class="cls-2" d="M696.4,814.691c-28.048-7.634-59.142,16.881-69.451,54.756s4.072,74.767,32.119,82.4,59.143-16.882,69.451-54.757S724.444,822.325,696.4,814.691Z"/>
  <path id="flame" class="cls-2" d="M333,20s21.574,78.274-50,188C214.052,313.7,161.5,366.273,156,408s25.984,87.106,74,134c24.167,23.6,55.433,45.929,83.7,63.951C353.3,631.2,370,654,370,654c22.539-51.271,36.387-66.939,64-91,28.6-24.921,94.336-86.844,108-137,6.992-25.666,18.355-56.674,9-108-14.528-79.708-82.93-146.707-77-115,1.107,5.92,9.074,40.649,7,66-2.035,29.319-13.259,61.752-14,63-8.759,21.4-52.708,63.178-79,32-24.579-29.147,40.265-127.973,38-193C423.735,125.02,396.57,51.192,333,20Zm4,264s-58.746,167.914,5,240-68.174-10.672-75-100S337,284,337,284Zm142,98s-39.531,101.742-69,108,38.578,7.555,58-32S479,382,479,382Z"/>
</svg>
